<?xml version="1.0" encoding="utf-8"?>
<!-- Generator: Adobe Illustrator 29.5.1, SVG Export Plug-In . SVG Version: 9.03 Build 0)  -->
<svg version="1.1" xmlns="http://www.w3.org/2000/svg" xmlns:xlink="http://www.w3.org/1999/xlink" x="0px" y="0px"
	 viewBox="0 0 1024 1024" style="enable-background:new 0 0 1024 1024;" xml:space="preserve">
<g>
</g>
<g id="base-default">
	
		<linearGradient id="base_00000081632730939396161110000012146261025207772563_" gradientUnits="userSpaceOnUse" x1="3493.6811523" y1="-16291.4404297" x2="10180.75" y2="-24912.5214844" gradientTransform="matrix(0.0819242 0 0 -0.0776419 24.1362591 -999.2763062)">
		<stop  offset="0" style="stop-color:#8381C5"/>
		<stop  offset="0.5663939" style="stop-color:#7E55B3;stop-opacity:0.9960784"/>
		<stop  offset="1" style="stop-color:#A52ECB;stop-opacity:0.9921569"/>
	</linearGradient>
	<path id="base" style="fill:url(#base_00000081632730939396161110000012146261025207772563_);" d="M512.0001221,102
		C285.5634155,102,102,285.5632324,102,512s183.5634155,410,410.0001221,410S922,738.4367065,922,512
		S738.4367676,102,512.0001221,102z M744.9439697,714.6451416c-8.4955444,15.3720093-27.3699951,26.22052-62.0550537,39.0026855
		c-33.1489868,12.2160034-95.111084,25.4766846-95.111084,25.4766846
		c-50.8201904,11.1452637-118.7946167,17.8218994-136.6980591,19.3997803
		c-44.2087402,3.8962402-78.5734863,1.46521-78.5734863,1.46521c0.5982666-0.1288452,120.1046143-26.6813965,165.6932983-39.8312988
		c17.9199219-5.1689453,83.5584106-21.9160767,82.7393188-28.6578979
		c-0.5818481-4.7885742-9.7814941-6.6605225-68.1398315-3.5149536
		c-99.0786743,8.9219971-132.0197754-1.428894-198.4419556-23.4379272
		c-112.4579468-37.2631226-136.7403564-97.7819214-81.8486938-148.5540161
		c48.5323486-40.5491943,131.2683716-75.7676392,245.9624023-69.4594116c0,0-39.0299072-11.9335938-52.3320312-18.2527466
		c-35.3538208-16.7949829-90.2780762-39.6016846-128.3027344-81.888916
		c-8.99823-11.6403198-29.5279541-30.2365723-19.5928955-51.2713013
		c15.2072754-32.1970215,65.9110107-32.4831543,137.8925171-36.7579956c0,0,75.0340576-7.0995483,111.130249-12.994812
		c33.1557617-5.4151001,41.1377563-15.9364014,35.6495972-23.6097412
		c-9.2930908-12.993042-30.1010132-15.0679932-154.4215698-13.9920044c0,0,100.5769043-29.2149048,142.305603-36.8222656
		c44.3121948-8.0783081,90.9420776,15.2566528,99.7834473,54.9696655
		c9.8485107,38.906189-13.7892456,63.4727783-49.696167,69.4290161c0,0-4.2240601,1.6742554-30.2471313,2.0819702
		c-51.7714844,0.8110352-108.6559448,8.0350342-148.9510498,19.65802
		c-12.5117188,3.5779419-34.9104004,16.0720215-28.2473755,30.5761108
		c5.876709,15.1079102,32.987915,27.5952148,49.9292603,35.8884277
		c19.31604,9.4559326,113.2839966,53.2449951,163.6774902,78.1539307c0,0-149.6323242,34.0853271-187.8027344,52.555603
		c-75.7756958,34.6849976-84.6685181,74.0618286-66.9836426,88.2948608
		c18.4422607,14.0301514,53.0629883,31.4502563,157.1351318,35.026123
		c93.8465576,1.9897461,141.2736816-1.1127319,182.1676025,16.0396118
		C747.5596313,700.3265381,744.5734863,711.4955444,744.9439697,714.6451416z"/>
</g>
</svg>
