<svg xmlns="http://www.w3.org/2000/svg" viewBox="0 0 24 24" fill="#2496ED">
  <path d="M13.983 11.078h2.119a.186.186 0 00.186-.185V9.006a.186.186 0 00-.186-.186h-2.119a.185.185 0 00-.185.185v1.888c0 .102.083.185.185.185m-2.954-5.43h2.118a.186.186 0 00.186-.186V3.574a.186.186 0 00-.186-.185h-2.118a.185.185 0 00-.185.185v1.888c0 .102.082.185.185.185m0 2.716h2.118a.187.187 0 00.186-.186V6.29a.186.186 0 00-.186-.185h-2.118a.185.185 0 00-.185.185v1.887c0 .102.082.185.185.186m-2.93 0h2.12a.186.186 0 00.184-.186V6.29a.185.185 0 00-.185-.185H8.1a.185.185 0 00-.185.185v1.887c0 .102.083.185.185.186m-2.964 0h2.119a.186.186 0 00.185-.186V6.29a.185.185 0 00-.185-.185H5.136a.186.186 0 00-.186.185v1.887c0 .102.084.185.186.186m5.893 2.715h2.118a.186.186 0 00.186-.185V9.006a.186.186 0 00-.186-.186h-2.118a.185.185 0 00-.185.185v1.888c0 .102.082.185.185.185m-2.93 0h2.12a.185.185 0 00.184-.185V9.006a.185.185 0 00-.184-.186H8.1a.185.185 0 00-.185.185v1.888c0 .102.083.185.185.185m-2.964 0h2.119a.185.185 0 00.185-.185V9.006a.185.185 0 00-.184-.186H5.136a.186.186 0 00-.186.186v1.887c0 .102.084.185.186.185m-2.92 0h2.12a.185.185 0 00.184-.185V9.006a.185.185 0 00-.184-.186h-2.12a.185.185 0 00-.184.185v1.888c0 .102.083.185.185.185M23.763 9.89c-.065-.051-.672-.51-1.954-.51-.338 0-.676.033-1.01.099-.663-6.6-6.426-6.201-6.426-6.201-.663-.06-1.187.395-1.162 1.02.023.659.016 1.337.016 1.337 0 .353-.312.639-.695.639-.373 0-.677-.286-.677-.639v-1.02c0-.486-.312-.89-.789-.89s-.79.404-.79.89c0 .373 0 .747.016 1.12.016.373-.29.676-.661.676-.373 0-.677-.303-.677-.676 0-.373 0-.747.016-1.12 0-.486-.313-.89-.79-.89s-.789.404-.789.89v1.02c0 .353-.304.639-.677.639-.373 0-.695-.286-.695-.639 0 0-.008-.678.016-1.337.024-.625-.499-1.08-1.162-1.02 0 0-5.763-.399-6.426 6.201-.334-.066-.672-.099-1.01-.099-1.282 0-1.889.459-1.954.51A10.814 10.814 0 000 11.814c0 5.904 4.719 10.686 10.544 10.686 5.826 0 10.544-4.782 10.544-10.686 0-.678-.063-1.34-.181-1.981z"/>
</svg>