<svg xmlns="http://www.w3.org/2000/svg" viewBox="0 0 24 24" fill="#00ADD8">
  <path d="M7.01 11.23c-.64.04-1.27.08-1.93.08-1.14 0-2.28-.04-3.38-.11L2 10c.04 1.14.11 2.28.15 3.38.64-.04 1.27-.08 1.93-.08 1.14 0 2.28.04 3.38.11L7 14.41c-.04-1.14-.11-2.28-.15-3.38h.16zm8.38-3.77c-1.1-.3-2.28-.45-3.46-.45-1.18 0-2.36.15-3.46.45-.3 1.1-.45 2.28-.45 3.46 0 1.18.15 2.36.45 3.46 1.1.3 2.28.45 3.46.45 1.18 0 2.36-.15 3.46-.45.3-1.1.45-2.28.45-3.46 0-1.18-.15-2.36-.45-3.46z"/>
  <path d="M5.8 7.42C4.7 8.15 3.8 9.15 3.2 10.3c.34-.04.68-.08 1.04-.08.68 0 1.36.04 2.04.08-.08-.64-.11-1.32-.11-2-.04-.34-.04-.68-.08-1.04.23-.23.45-.56.71-.84z"/>
</svg>