<?xml version="1.0" encoding="utf-8"?>
<svg xmlns="http://www.w3.org/2000/svg" viewBox="963.0811 394.0075 499.9971 500.001" width="499.997px" height="500.001px" preserveAspectRatio="none"><defs><linearGradient id="gradient_0" gradientUnits="userSpaceOnUse" x1="1030.4365" y1="2046.7898" x2="1016.7222" y2="23.629362" gradientTransform="matrix(0.244141, 0, 0, 0.244141, 964.303679, 398.39667)"><stop offset="0" stop-color="#327FF6"/><stop offset="1" stop-color="#60A6FF"/></linearGradient><linearGradient id="gradient_1" gradientUnits="userSpaceOnUse" x1="435.70334" y1="726.67639" x2="495.82529" y2="322.40732" gradientTransform="matrix(0.586132, 0, 0, 0.57016, 883.283131, 321.014421)"><stop offset="0" stop-color="#AFD0F5"/><stop offset="1" stop-color="#FFFFFE"/></linearGradient><linearGradient id="gradient_2" gradientUnits="userSpaceOnUse" x1="1009.75" y1="1051.2" x2="755.54797" y2="1020.82" gradientTransform="matrix(0.67964, 0, 0, 0.642048, 839.148205, 284.035492)"><stop offset="0" stop-color="#367FFA"/><stop offset="1" stop-color="#53A4FF"/></linearGradient></defs><g id="object-3" transform="matrix(1, 0, 0, 1, -10.846622467041016, -4.307528972625732)"><g transform="matrix(1, 0, 0, 1, 9.624776, -0.079953)"><path fill="url(#gradient_0)" d="M 1122.85 398.395 L 1305.73 398.395 C 1307.57 398.675 1309.45 398.661 1311.31 398.729 C 1334.04 399.561 1357.25 400.139 1379.1 407.129 C 1382.27 408.142 1386.22 409.447 1389.19 410.93 C 1414.32 420.51 1440.34 446.966 1450.98 471.541 C 1460.34 493.176 1462.21 512.948 1463.38 536.199 C 1463.6 540.755 1463.78 545.314 1463.92 549.874 C 1463.99 551.63 1464.01 555.352 1464.3 556.964 L 1464.3 739.831 C 1464.06 741.418 1464.06 742.927 1464 744.524 C 1463.47 759.214 1463 773.975 1461.05 788.56 C 1460.9 789.702 1460.17 795.168 1459.76 796.018 C 1452.77 842.942 1413.71 883.281 1367.7 892.739 C 1364.59 893.379 1360.68 894.348 1357.55 894.597 C 1354.99 895.271 1349.29 895.808 1346.63 896.074 C 1337.08 896.941 1327.5 897.532 1317.92 897.84 C 1316.12 897.908 1307.07 898.115 1305.76 898.396 L 1122.84 898.396 C 1121.18 898.093 1115.85 898.028 1113.8 897.957 C 1108.39 897.774 1102.98 897.534 1097.58 897.237 C 1066.86 895.545 1039.21 890.799 1014.47 871.221 C 994.656 855.545 979.532 835.549 972.417 811.179 C 970.93 806.089 969.205 799.758 968.563 794.514 C 965.923 782.151 965.732 766.536 964.922 753.87 C 964.686 750.188 964.832 742.922 964.303 739.626 L 964.303 556.975 C 964.675 554.862 964.786 545.889 964.912 543.225 C 965.553 529.649 966.1 516.113 968.426 502.678 C 968.869 500.116 969.694 495.241 970.538 492.877 C 970.859 490.637 972.233 486.102 972.946 483.882 C 977 470.887 983.413 458.751 991.864 448.08 C 1008.26 427.398 1029.76 411.96 1055.41 405.397 C 1060.32 404.143 1066.03 402.773 1071.05 402.193 C 1071.78 401.872 1077.58 401.189 1078.8 401.055 C 1088.6 400.044 1098.44 399.376 1108.29 399.052 C 1111.66 398.909 1119.88 398.848 1122.85 398.395 Z" style="stroke-width: 0.244;" id="object-0"/></g><path fill="url(#gradient_1)" d="M 1110.81 557.355 C 1104.68 552.169 1097.99 547.596 1091.81 542.431 C 1084.98 536.728 1080.46 531.353 1079.82 522.356 C 1079.32 515.58 1081.63 508.891 1086.24 503.792 C 1091.07 498.408 1097.19 495.621 1104.48 495.066 C 1118.1 494.025 1127.69 505.012 1137.44 512.513 C 1145.33 518.581 1153.06 524.809 1160.88 530.948 L 1209.52 569.137 C 1219.74 577.139 1230.12 585.159 1239.98 593.33 C 1250.67 602.189 1252.35 615.883 1245.1 627.299 C 1243.74 629.456 1241.29 631.399 1239.37 633.125 C 1230.63 640.223 1221.72 647.157 1212.84 654.089 L 1173.82 684.753 L 1139.21 712.112 C 1132.75 717.203 1120.54 728.074 1113.08 730.03 C 1106.16 731.835 1098.79 730.873 1092.61 727.36 C 1086.53 723.946 1082.14 718.283 1080.43 711.666 C 1078.72 705.117 1079.74 698.176 1083.27 692.356 C 1087.52 685.423 1103.02 674.803 1110.12 669.114 C 1110.81 666.374 1110.42 661.34 1110.38 658.294 C 1110.32 654.032 1110.32 649.77 1110.38 645.508 C 1110.68 627.172 1110.79 608.833 1110.72 590.495 C 1110.73 579.591 1110.59 568.204 1110.81 557.355 Z" style="stroke-width: 1;" id="object-1"/><path fill="#A3CDF7" d="M 1269.38 699.825 C 1291.22 700.288 1313.28 699.762 1335.16 699.986 C 1345.11 700.526 1357.18 698.982 1366.89 700.86 C 1384.18 704.204 1390.98 727.733 1378.7 740.541 C 1372.5 747.004 1366.69 748.35 1358.36 748.548 C 1352.8 748.726 1345.89 748.481 1340.17 748.478 L 1300.26 748.468 L 1278.37 748.489 C 1268.61 748.502 1258.67 749.544 1250.92 742.285 C 1246.09 737.71 1243.26 731.344 1243.05 724.612 C 1242.7 715.492 1247.84 707.068 1255.67 702.908 C 1260.14 700.539 1264.44 699.997 1269.38 699.825 Z" style="stroke-width: 1;" id="object-2"/><path fill="url(#gradient_2)" d="M 1100.87 676.865 L 1100.53 676.634 C 1099.54 676.93 1098.73 678.005 1097.73 678.776 C 1097.49 678.374 1097.56 660.808 1097.55 658.924 L 1097.03 588.683 C 1097 586.355 1096.88 563.692 1096.78 563.45 C 1097.3 561.787 1097.17 560.861 1096.65 559.236 C 1097.46 558.074 1097.03 549.474 1096.93 547.463 C 1096.87 545.871 1096.15 545.616 1095.01 544.775 L 1095.59 544.555 C 1096.68 545.32 1102.19 549.378 1103.04 550.295 L 1156.26 590.954 C 1164.78 597.484 1176.81 606.141 1184.66 612.764 C 1159.69 632.332 1134.06 651.299 1108.95 670.741 C 1107.02 672.239 1104.92 673.668 1103.05 675.198 C 1102.24 675.87 1101.77 676.282 1100.87 676.865 Z" style="stroke-width: 1; transform-box: fill-box; transform-origin: 69.1276% 63.9529%;"/></g></svg>