<svg xmlns="http://www.w3.org/2000/svg" viewBox="0 0 24 24" fill="#61DAFB">
  <circle cx="12" cy="12" r="2"/>
  <path d="M12 1c-2.4 0-4.7.3-6.6.8C3.1 2.3 1.8 3.7 1.8 5.2c0 1.8 2.2 3.5 5.4 4.3-.7 2.3-.7 4.4 0 6.7-3.2.8-5.4 2.5-5.4 4.3 0 1.5 1.3 2.9 3.6 3.4 1.9.5 4.2.8 6.6.8s4.7-.3 6.6-.8c2.3-.5 3.6-1.9 3.6-3.4 0-1.8-2.2-3.5-5.4-4.3.7-2.3.7-4.4 0-6.7 3.2-.8 5.4-2.5 5.4-4.3 0-1.5-1.3-2.9-3.6-3.4C16.7 1.3 14.4 1 12 1zm0 2c2.1 0 4.1.2 5.8.7 1.4.3 2.2 1 2.2 1.5 0 .8-1.4 2-3.8 2.6-1.2-.9-2.6-1.6-4.2-2.1-1.6.5-3 1.2-4.2 2.1-2.4-.6-3.8-1.8-3.8-2.6 0-.5.8-1.2 2.2-1.5C7.9 3.2 9.9 3 12 3zM7.2 8.7c.7.5 1.5.9 2.4 1.2-.3.8-.5 1.6-.6 2.4-.9-.1-1.7-.3-2.4-.6-.7-.3-1.2-.7-1.5-1.1.1-.7.6-1.3 1.1-1.9.3-.3.7-.7 1-.7 0 .2 0 .5 0 .7zM12 8c.7 0 1.4.1 2.1.3-.4.7-.9 1.3-1.4 1.9-.7-.6-1.5-1.1-2.4-1.5.5-.3 1.1-.5 1.7-.7zm4.8.7c.4 0 .7.4 1 .7.5.6 1 1.2 1.1 1.9-.3.4-.8.8-1.5 1.1-.7.3-1.5.5-2.4.6-.1-.8-.3-1.6-.6-2.4.9-.3 1.7-.7 2.4-1.2v-.7z"/>
</svg>