<svg xmlns="http://www.w3.org/2000/svg" viewBox="0 0 24 24" fill="#CE422B">
  <path d="M12 1.47L10.53 5.14c-.61.21-1.2.48-1.75.82l-3.28-1.89-2.12 3.67 2.68 2.44c-.06.38-.1.77-.1 1.17s.04.79.1 1.17L3.38 14.2l2.12 3.67 3.28-1.89c.55.34 1.14.61 1.75.82L12 20.53l1.47-3.67c.61-.21 1.2-.48 1.75-.82l3.28 1.89 2.12-3.67-2.68-2.44c.06-.38.1-.77.1-1.17s-.04-.79-.1-1.17L20.62 9.8l-2.12-3.67-3.28 1.89c-.55-.34-1.14-.61-1.75-.82L12 1.47zm0 3.53a7 7 0 1 1 0 14 7 7 0 0 1 0-14z"/>
  <circle cx="12" cy="12" r="4"/>
</svg>