<svg xmlns="http://www.w3.org/2000/svg" viewBox="0 0 24 24" fill="#FF3E00">
  <path d="M20.24 3.76c-2.46-2.95-6.57-3.33-9.51-.88L5.45 7.28c-1.74 1.45-2.54 3.75-2.1 6.04.26 1.37.94 2.65 1.96 3.67.38.38.8.71 1.25 1-0.04.07-.08.14-.11.22-.44 1.1-.44 2.31 0 3.41 1 2.37 3.79 3.5 6.22 2.53l5.28-2.4c1.74-1.45 2.54-3.75 2.1-6.04-.26-1.37-.94-2.65-1.96-3.67-.38-.38-.8-.71-1.25-1 .04-.07.08-.14.11-.22.44-1.1.44-2.31 0-3.41-1-2.37-3.79-3.5-6.22-2.53zm-9.51 1.88c1.95-1.63 4.89-1.37 6.55.58.62.73.96 1.67.96 2.64 0 .35-.05.7-.14 1.03l-5.28 2.4c-.85.39-1.85.16-2.45-.55-.6-.71-.64-1.73-.04-2.48l.7-.84c.3-.36.27-.9-.07-1.22-.34-.32-.87-.3-1.18.04l-.7.84c-1.14 1.36-1.06 3.42.2 4.68.59.59 1.36.89 2.13.89.44 0 .88-.11 1.28-.33l5.28-2.4c.85-.39 1.85-.16 2.45.55.6.71.64 1.73.04 2.48l-.7.84c-.3.36-.27.9.07 1.22.34.32.87.3 1.18-.04l.7-.84c1.14-1.36 1.06-3.42-.2-4.68-1.26-1.26-3.32-1.34-4.68-.2z"/>
</svg>