<svg xmlns="http://www.w3.org/2000/svg" viewBox="0 0 24 24" fill="#FBF0DF">
  <path fill="#000" d="M12 0C5.373 0 0 5.373 0 12s5.373 12 12 12 12-5.373 12-12S18.627 0 12 0zm0 2c5.523 0 10 4.477 10 10s-4.477 10-10 10S2 17.523 2 12 6.477 2 12 2z"/>
  <path fill="#FBF0DF" d="M8.5 8.5c0-.552.448-1 1-1s1 .448 1 1-.448 1-1 1-1-.448-1-1zm5 0c0-.552.448-1 1-1s1 .448 1 1-.448 1-1 1-1-.448-1-1z"/>
  <path fill="#000" d="M12 15c-1.657 0-3-1.343-3-3h6c0 1.657-1.343 3-3 3z"/>
  <ellipse cx="12" cy="6" rx="3" ry="1.5" fill="#FBF0DF"/>
  <ellipse cx="9" cy="5.5" rx="1" ry="0.5" fill="#FBF0DF"/>
  <ellipse cx="15" cy="5.5" rx="1" ry="0.5" fill="#FBF0DF"/>
</svg>