<svg xmlns="http://www.w3.org/2000/svg" viewBox="0 0 24 24" fill="#FA7343">
  <path d="M7.508 0c-.287 0-.573.09-.806.27L.274 5.415C.098 5.57 0 5.787 0 6.017c0 .23.098.447.274.602L6.7 11.764c.463.388 1.15.388 1.613 0L14.74 6.62c.176-.155.274-.372.274-.602 0-.23-.098-.447-.274-.602L8.314.27C8.081.09 7.795 0 7.508 0z"/>
  <path d="M8.985 7.5C8.7 7.5 8.414 7.59 8.18 7.77L1.754 13.014c-.176.155-.274.372-.274.602 0 .23.098.447.274.602L8.18 19.463c.463.388 1.15.388 1.613 0L16.22 14.218c.176-.155.274-.372.274-.602 0-.23-.098-.447-.274-.602L9.794 7.77c-.234-.18-.52-.27-.809-.27z"/>
  <path d="M15.508 7.5c-.287 0-.573.09-.806.27L8.274 13.015c-.176.155-.274.372-.274.602 0 .23.098.447.274.602L14.7 19.464c.463.388 1.15.388 1.613 0L22.74 14.219c.176-.155.274-.372.274-.602 0-.23-.098-.447-.274-.602L16.314 7.77c-.234-.18-.52-.27-.806-.27z"/>
</svg>